<svg width="412" height="341" version="1.1" baseProfile="full" viewbox="0 0 412 341" xmlns="http://www.w3.org/2000/svg" xmlns:xlink="http://www.w3.org/1999/xlink" xmlns:ev="http://www.w3.org/2001/xml-events" style="font-weight:bold; font-size:12pt; font-family:'Calibri', Helvetica, sans-serif;;stroke-width:3;stroke-linejoin:round;stroke-linecap:round"><path d="M130.5 44.5 L130.5 64.5 L130.5 84.5 L130.5 84.5 " style="stroke:#33322E;fill:none;stroke-dasharray:none;"></path>
<path d="M125.2 71.2 L130.5 77.8 L135.8 71.2 L130.5 84.5 Z" style="stroke:#33322E;fill:#33322E;stroke-dasharray:none;"></path>
<path d="M130.5 115.5 L130.5 135.5 L130.5 155.5 L130.5 155.5 " style="stroke:#33322E;fill:none;stroke-dasharray:none;"></path>
<path d="M125.2 142.2 L130.5 148.8 L135.8 142.2 L130.5 155.5 Z" style="stroke:#33322E;fill:#33322E;stroke-dasharray:none;"></path>
<path d="M130.5 186.5 L130.5 206.5 L193.5 229 L193.5 229 " style="stroke:#33322E;fill:none;stroke-dasharray:none;"></path>
<path d="M179.1 229.5 L187.2 226.7 L182.7 219.5 L193.5 229 Z" style="stroke:#33322E;fill:#33322E;stroke-dasharray:none;"></path>
<path d="M329.5 186.5 L329.5 206.5 L266.5 229 L266.5 229 " style="stroke:#33322E;fill:none;stroke-dasharray:none;"></path>
<path d="M277.3 219.5 L272.8 226.7 L280.9 229.5 L266.5 229 Z" style="stroke:#33322E;fill:#33322E;stroke-dasharray:none;"></path>
<path d="M83.5 257.5 L83.5 277.5 L124.8 297.5 L124.8 297.5 " style="stroke:#33322E;fill:none;stroke-dasharray:none;"></path>
<path d="M110.4 296.5 L118.8 294.6 L115.1 286.9 L124.8 297.5 Z" style="stroke:#33322E;fill:#33322E;stroke-dasharray:none;"></path>
<path d="M230 257.5 L230 277.5 L188.7 297.5 L188.7 297.5 " style="stroke:#33322E;fill:none;stroke-dasharray:none;"></path>
<path d="M198.4 286.9 L194.7 294.6 L203.1 296.5 L188.7 297.5 Z" style="stroke:#33322E;fill:#33322E;stroke-dasharray:none;"></path>
<rect x="89.5" y="13.5" height="31" width="83" style="stroke:#33322E;fill:#eee8d5;stroke-dasharray:none;"></rect>
<text x="131" y="35" style="text-anchor: middle;">youtube</text>
<rect x="94.5" y="84.5" height="31" width="73" style="stroke:#33322E;fill:#eee8d5;stroke-dasharray:none;"></rect>
<text x="131" y="106" style="text-anchor: middle;">Pytube</text>
<rect x="41.5" y="155.5" height="31" width="178" style="stroke:#33322E;fill:#eee8d5;stroke-dasharray:none;"></rect>
<text x="130.5" y="177" style="text-anchor: middle;">downloaded videos</text>
<rect x="193.5" y="226.5" height="31" width="73" style="stroke:#33322E;fill:#eee8d5;stroke-dasharray:none;"></rect>
<text x="230" y="248" style="text-anchor: middle;">OpenCV</text>
<rect x="259.5" y="155.5" height="31" width="140" style="stroke:#33322E;fill:#eee8d5;stroke-dasharray:none;"></rect>
<text x="329.5" y="177" style="text-anchor: middle;">manual videos</text>
<rect x="13.5" y="226.5" height="31" width="140" style="stroke:#33322E;fill:#eee8d5;stroke-dasharray:none;"></rect>
<text x="83.5" y="248" style="text-anchor: middle;">manual photos</text>
<rect x="67.5" y="297.5" height="31" width="178" style="stroke:#33322E;fill:#eee8d5;stroke-dasharray:none;"></rect>
<text x="156.5" y="319" style="text-anchor: middle;">master image pool</text></svg>