<svg width="560.5" height="341" version="1.1" baseProfile="full" viewbox="0 0 560.5 341" xmlns="http://www.w3.org/2000/svg" xmlns:xlink="http://www.w3.org/1999/xlink" xmlns:ev="http://www.w3.org/2001/xml-events" style="font-weight:bold; font-size:12pt; font-family:'Calibri', Helvetica, sans-serif;;stroke-width:3;stroke-linejoin:round;stroke-linecap:round"><path d="M244.7 44.5 L217.8 64.5 L217.8 84.5 L217.8 84.5 " style="stroke:#33322E;fill:none;stroke-dasharray:none;"></path>
<path d="M212.4 71.2 L217.8 77.8 L223.1 71.2 L217.8 84.5 Z" style="stroke:#33322E;fill:#33322E;stroke-dasharray:none;"></path>
<path d="M217.8 115.5 L217.8 135.5 L244.7 155.5 L244.7 155.5 " style="stroke:#33322E;fill:none;stroke-dasharray:none;"></path>
<path d="M230.8 151.8 L239.3 151.5 L237.1 143.3 L244.7 155.5 Z" style="stroke:#33322E;fill:#33322E;stroke-dasharray:none;"></path>
<path d="M219.5 178.8 L55 206.5 L55 226.5 L55 226.5 " style="stroke:#33322E;fill:none;stroke-dasharray:none;"></path>
<path d="M49.7 213.2 L55 219.8 L60.3 213.2 L55 226.5 Z" style="stroke:#33322E;fill:#33322E;stroke-dasharray:none;"></path>
<path d="M246.7 186.5 L222.5 206.5 L222.5 226.5 L222.5 226.5 " style="stroke:#33322E;fill:none;stroke-dasharray:none;"></path>
<path d="M217.2 213.2 L222.5 219.8 L227.8 213.2 L222.5 226.5 Z" style="stroke:#33322E;fill:#33322E;stroke-dasharray:none;"></path>
<path d="M311.5 183.1 L400.8 206.5 L400.8 226.5 L400.8 226.5 " style="stroke:#33322E;fill:none;stroke-dasharray:none;"></path>
<path d="M395.4 213.2 L400.8 219.8 L406.1 213.2 L400.8 226.5 Z" style="stroke:#33322E;fill:#33322E;stroke-dasharray:none;"></path>
<path d="M55 257.5 L55 277.5 L78 297.5 L78 297.5 " style="stroke:#33322E;fill:none;stroke-dasharray:none;"></path>
<path d="M64.4 292.8 L72.9 293.1 L71.4 284.7 L78 297.5 Z" style="stroke:#33322E;fill:#33322E;stroke-dasharray:none;"></path>
<path d="M113.5 297.5 L136.5 277.5 L136.5 242 L136.5 242 L136.5 206.5 L136.5 206.5 L219.5 183.7 L219.5 183.7 " style="stroke:#33322E;fill:none;stroke-dasharray:none;"></path>
<path d="M208.1 192.3 L213.1 185.4 L205.2 182.1 L219.5 183.7 Z" style="stroke:#33322E;fill:#33322E;stroke-dasharray:none;"></path>
<path d="M222.5 257.5 L222.5 277.5 L246.7 297.5 L246.7 297.5 " style="stroke:#33322E;fill:none;stroke-dasharray:none;"></path>
<path d="M233 293.1 L241.6 293.3 L239.8 284.9 L246.7 297.5 Z" style="stroke:#33322E;fill:#33322E;stroke-dasharray:none;"></path>
<path d="M289 297.5 L319.3 277.5 L319.3 242 L319.3 242 L319.3 206.5 L319.3 206.5 L289 186.5 L289 186.5 " style="stroke:#33322E;fill:none;stroke-dasharray:none;"></path>
<path d="M303 189.4 L294.5 190.2 L297.2 198.3 L289 186.5 Z" style="stroke:#33322E;fill:#33322E;stroke-dasharray:none;"></path>
<path d="M400.8 257.5 L400.8 277.5 L431 297.5 L431 297.5 " style="stroke:#33322E;fill:none;stroke-dasharray:none;"></path>
<path d="M417 294.6 L425.5 293.8 L422.8 285.7 L431 297.5 Z" style="stroke:#33322E;fill:#33322E;stroke-dasharray:none;"></path>
<path d="M472.3 297.5 L495.3 277.5 L495.3 242 L495.3 242 L495.3 206.5 L495.3 206.5 L311.5 178.1 L311.5 178.1 " style="stroke:#33322E;fill:none;stroke-dasharray:none;"></path>
<path d="M325.5 174.9 L318.1 179.1 L323.9 185.4 L311.5 178.1 Z" style="stroke:#33322E;fill:#33322E;stroke-dasharray:none;"></path>
<path d="M286.3 155.5 L313.3 135.5 L313.3 100 L313.3 100 L313.3 64.5 L313.3 64.5 L286.3 44.5 L286.3 44.5 " style="stroke:#33322E;fill:none;stroke-dasharray:none;"></path>
<path d="M300.2 48.2 L291.7 48.5 L293.9 56.7 L286.3 44.5 Z" style="stroke:#33322E;fill:#33322E;stroke-dasharray:none;"></path>
<rect x="210.5" y="13.5" height="31" width="111" style="stroke:#33322E;fill:#eee8d5;stroke-dasharray:none;"></rect>
<text x="266" y="35" style="text-anchor: middle;">mobile app</text>
<rect x="162.5" y="84.5" height="31" width="111" style="stroke:#33322E;fill:#eee8d5;stroke-dasharray:none;"></rect>
<text x="218" y="106" style="text-anchor: middle;">image data</text>
<rect x="219.5" y="155.5" height="31" width="92" style="stroke:#33322E;fill:#eee8d5;stroke-dasharray:none;"></rect>
<text x="265.5" y="177" style="text-anchor: middle;">REST API</text>
<rect x="13.5" y="226.5" height="31" width="83" style="stroke:#33322E;fill:#eee8d5;stroke-dasharray:none;"></rect>
<text x="55" y="248" style="text-anchor: middle;">Spec DB</text>
<rect x="176.5" y="226.5" height="31" width="92" style="stroke:#33322E;fill:#eee8d5;stroke-dasharray:none;"></rect>
<text x="222.5" y="248" style="text-anchor: middle;">Price DB</text>
<rect x="359.5" y="226.5" height="31" width="83" style="stroke:#33322E;fill:#eee8d5;stroke-dasharray:none;"></rect>
<text x="401" y="248" style="text-anchor: middle;">ImageAI</text>
<rect x="44.5" y="297.5" height="31" width="102" style="stroke:#33322E;fill:#eee8d5;stroke-dasharray:none;"></rect>
<text x="95.5" y="319" style="text-anchor: middle;">spec data</text>
<rect x="210.5" y="297.5" height="31" width="111" style="stroke:#33322E;fill:#eee8d5;stroke-dasharray:none;"></rect>
<text x="266" y="319" style="text-anchor: middle;">price data</text>
<rect x="361.5" y="297.5" height="31" width="187" style="stroke:#33322E;fill:#eee8d5;stroke-dasharray:none;"></rect>
<text x="455" y="319" style="text-anchor: middle;">vehicle prediction</text></svg>